# xmcd
#
# Track frame offsets:
#	150
#	14531
#	30029
#	48881
#	63460
#	76341
#	91909
#	108386
#	122203
#	139394
#	148652
#	165559
#
# Disc length: 2391 seconds
#
# Revision: 1
# Processed by: cddbd v1.5.2PL0 Copyright (c) Steve Scherf et al.
# Submitted via: audiograbber 1.83.01
#
DISCID=9909550c
DTITLE=Spring Creek - Way Up On a Mountain
DYEAR=2009
DGENRE=Bluegrass
TTITLE0=My Love Is Way Up On a Mountain
TTITLE1=Another Lonesome Night
TTITLE2=Tangled In the Pines
TTITLE3=Cuba Vera Swing
TTITLE4=Try And Catch the Wind
TTITLE5=It's Alright My Darlin'
TTITLE6=Lonesome Town
TTITLE7=Drivin' Me Crazy
TTITLE8=Slow Down
TTITLE9=In Despair
TTITLE10=Under the Gun
TTITLE11='Til You Come Back to Me
EXTD=
EXTT0=
EXTT1=
EXTT2=
EXTT3=
EXTT4=
EXTT5=
EXTT6=
EXTT7=
EXTT8=
EXTT9=
EXTT10=
EXTT11=
PLAYORDER=
